<?xml version="1.0" standalone="no"?>
<!DOCTYPE svg PUBLIC "-//W3C//DTD SVG 20010904//EN"
 "http://www.w3.org/TR/2001/REC-SVG-20010904/DTD/svg10.dtd">
<svg version="1.0" xmlns="http://www.w3.org/2000/svg"
 width="300.000000pt" height="300.000000pt" viewBox="0 0 300.000000 300.000000"
 preserveAspectRatio="xMidYMid meet">
<metadata>
Created by potrace 1.10, written by Peter Selinger 2001-2011
</metadata>
<g transform="translate(0.000000,300.000000) scale(0.100000,-0.100000)"
fill="#000000" stroke="none">
<path d="M1430 2659 c-11 -46 -13 -47 -61 -56 l-49 -10 -27 44 c-16 23 -33 41
-39 39 -7 -3 -30 -10 -53 -17 -41 -12 -41 -12 -41 -61 0 -48 0 -49 -47 -69
l-46 -20 -32 31 c-38 37 -45 37 -95 4 -44 -29 -47 -41 -24 -85 8 -17 14 -32
12 -33 -2 -1 -23 -17 -47 -36 l-44 -34 -40 23 -40 23 -43 -44 -44 -43 24 -36
24 -35 -41 -53 c-22 -28 -46 -50 -53 -47 -7 3 -28 8 -47 11 -33 6 -36 4 -65
-43 l-30 -49 35 -36 35 -35 -26 -56 -27 -56 -48 0 -49 0 -18 -52 -17 -52 42
-35 42 -36 -7 -57 -7 -57 -48 -11 -49 -12 0 -64 0 -64 39 -6 c54 -9 57 -12 64
-76 6 -58 5 -58 -35 -91 l-40 -34 18 -56 18 -57 47 0 48 0 26 -57 26 -57 -35
-35 -35 -36 31 -53 c26 -46 34 -53 54 -48 13 3 35 9 48 12 20 5 30 -2 60 -42
42 -55 42 -57 17 -98 l-20 -31 40 -43 c22 -23 42 -42 45 -42 2 0 21 11 42 24
l38 24 40 -30 c58 -43 57 -42 35 -86 l-21 -40 50 -32 50 -32 35 31 c42 36 38
36 92 13 42 -17 43 -18 43 -67 l0 -51 45 -12 c61 -16 59 -17 89 28 21 31 31
39 49 36 83 -17 76 -12 91 -79 6 -27 8 -28 64 -25 l57 3 9 42 c8 39 12 43 45
49 20 3 43 8 52 10 11 3 26 -10 45 -39 l28 -45 50 18 51 17 3 50 c3 50 4 51
48 68 l46 17 32 -31 c17 -17 35 -31 39 -31 6 0 67 36 96 57 3 2 -3 19 -12 38
-23 49 -22 56 27 91 l43 31 42 -25 43 -25 41 42 42 41 -23 40 -23 40 38 51
c35 46 41 50 68 44 60 -14 67 -11 97 37 l30 48 -32 40 -32 41 23 54 c24 54 24
54 73 57 46 3 50 5 61 38 27 79 28 74 -19 108 l-43 31 11 63 11 63 48 8 47 9
0 63 0 63 -32 7 c-64 13 -66 15 -73 58 -4 23 -9 50 -11 59 -4 12 8 27 39 49
l44 31 -15 54 -15 54 -51 0 -51 0 -24 56 -24 55 33 34 32 33 -31 55 -32 56
-45 -16 c-25 -8 -46 -14 -47 -12 -2 2 -20 26 -42 53 -32 41 -37 51 -27 67 7
11 18 28 24 39 11 18 8 25 -29 62 l-42 42 -41 -23 -40 -22 -45 32 c-25 18 -45
36 -45 39 0 4 7 24 16 45 8 20 14 38 12 39 -2 2 -24 17 -49 34 -41 28 -48 30
-60 16 -7 -8 -25 -24 -40 -35 l-28 -20 -41 21 c-38 20 -40 22 -40 69 l0 48
-55 15 -55 15 -26 -41 -27 -42 -52 9 c-52 10 -52 10 -61 55 l-9 44 -57 2 -57
1 -11 -46z m128 -60 c13 -16 19 -29 14 -29 -6 0 -18 -7 -26 -16 -10 -9 -21
-12 -28 -7 -7 4 -30 8 -50 9 -21 0 -40 3 -43 6 -9 9 48 97 65 101 8 1 22 -5
30 -16 8 -10 26 -32 38 -48z m234 9 c4 -7 8 -22 8 -33 0 -11 7 -31 16 -44 16
-22 16 -23 -2 -18 -11 3 -45 13 -76 22 -32 9 -58 18 -58 20 0 2 15 19 33 37
32 34 63 40 79 16z m-507 -18 c35 -36 29 -43 -50 -63 -63 -16 -77 -15 -57 5 7
7 12 18 12 24 0 7 4 24 10 38 13 36 49 34 85 -4z m165 -73 c0 -8 -29 -17 -81
-25 -203 -32 -384 -134 -556 -311 -40 -41 -75 -72 -79 -68 -10 10 29 58 116
141 141 134 298 220 470 257 104 22 130 23 130 6z m260 -13 c96 -23 273 -113
365 -186 71 -57 195 -185 195 -202 0 -19 -28 2 -91 69 -165 174 -371 287 -564
310 -68 8 -78 12 -69 27 7 11 64 5 164 -18z m-685 -4 c9 -10 22 -18 29 -17 19
4 12 -27 -9 -38 -11 -5 -37 -20 -56 -32 -42 -27 -57 -29 -39 -8 8 9 10 28 6
51 -12 59 31 86 69 44z m999 14 c11 -4 16 -19 16 -51 0 -24 5 -54 11 -66 12
-21 11 -21 -12 -6 -13 8 -45 28 -71 45 -48 29 -60 44 -35 44 8 0 24 9 37 20
25 22 30 23 54 14z m-299 -74 c229 -72 459 -260 587 -479 72 -121 128 -285
128 -370 0 -34 5 -47 25 -63 34 -26 33 -70 0 -96 -21 -17 -28 -36 -40 -109
-18 -109 -31 -148 -92 -265 -110 -214 -294 -388 -517 -487 -68 -31 -100 -59
-53 -47 14 3 28 2 32 -3 7 -13 -107 -48 -185 -57 -51 -6 -62 -4 -58 7 2 7 15
16 29 20 l24 6 -25 6 c-14 3 -66 8 -115 11 -100 6 -263 45 -328 77 -22 12 -72
42 -110 67 -49 33 -78 46 -97 44 -16 -2 -41 3 -57 11 -31 16 -143 131 -143
147 0 19 18 10 43 -20 29 -34 37 -37 37 -14 0 9 -21 39 -46 67 -26 30 -70 102
-102 168 -39 79 -65 121 -83 131 -15 9 -39 36 -53 61 -47 79 -47 154 -1 221
30 45 31 58 4 113 -18 37 -19 47 -9 79 7 22 24 43 41 53 16 9 29 23 29 31 1
31 69 180 115 251 60 93 227 260 323 323 82 54 213 111 305 132 94 21 302 13
392 -16z m-921 -105 c15 -8 36 -15 45 -15 18 0 -66 -89 -86 -90 -6 0 -13 -6
-16 -12 -3 -7 -5 1 -4 17 0 17 -5 40 -11 51 -9 16 -8 26 4 42 18 26 29 27 68
7z m1451 -1 c11 -11 14 -24 9 -38 -4 -12 -7 -36 -8 -53 -1 -18 -3 -33 -6 -33
-3 0 -21 16 -40 34 -45 42 -100 104 -80 89 11 -8 24 -8 50 2 48 17 56 17 75
-1z m72 -204 c16 -13 41 -20 67 -20 31 0 44 -5 55 -21 11 -19 10 -25 -8 -50
-27 -36 -27 -71 1 -126 23 -47 43 -62 93 -73 46 -9 48 -45 6 -87 -33 -33 -33
-35 -27 -91 8 -65 24 -95 62 -114 15 -7 32 -21 38 -31 9 -15 6 -22 -14 -37
-14 -11 -37 -28 -52 -40 -19 -15 -29 -33 -34 -65 -8 -57 0 -89 30 -117 37 -35
38 -70 1 -86 -68 -29 -81 -40 -102 -82 -29 -57 -29 -93 -1 -130 19 -27 20 -32
8 -55 -11 -21 -20 -25 -49 -24 -42 3 -81 -8 -81 -22 0 -19 -21 -8 -30 17 -8
21 -6 31 14 57 59 80 133 246 149 337 3 14 8 43 12 65 4 22 16 52 27 68 37 52
41 87 14 127 -14 22 -28 64 -35 106 -20 131 -73 263 -161 401 -27 43 -31 55
-20 68 7 8 10 22 6 30 -7 20 1 19 31 -5z m-1622 -20 c5 -24 0 -41 -28 -83 -42
-64 -61 -101 -97 -188 -26 -64 -66 -127 -82 -128 -14 -1 -77 74 -78 91 0 25
28 48 59 48 31 0 59 27 84 83 22 48 21 63 -3 94 -39 50 -14 94 48 86 24 -3 44
1 57 11 28 22 33 20 40 -14z m-205 -572 c0 -15 -8 -43 -18 -61 l-18 -34 -42
18 c-56 24 -58 57 -4 89 20 12 41 29 46 38 8 14 10 13 22 -3 8 -10 14 -31 14
-47z m52 -371 c16 -16 49 -70 74 -120 25 -50 54 -104 65 -118 21 -30 23 -47
10 -68 -7 -11 -13 -10 -35 5 -15 9 -44 17 -63 16 -20 -1 -42 3 -50 9 -18 16
-16 49 4 72 27 29 21 91 -13 139 -30 43 -40 50 -89 65 -42 12 -46 48 -9 79
l27 24 25 -37 c14 -21 39 -51 54 -66z m1718 -305 c0 -5 -33 -44 -73 -87 -49
-53 -77 -76 -86 -71 -9 6 9 30 61 86 67 71 98 94 98 72z m-1359 -197 c58 -8
89 -27 89 -56 0 -30 28 -51 51 -38 20 10 79 -7 79 -23 0 -5 9 -8 20 -8 11 0
20 -7 20 -14 0 -18 56 -61 90 -70 54 -13 57 -23 20 -56 -43 -38 -72 -36 -80 5
-10 45 -31 73 -69 91 -46 22 -77 21 -112 -5 -24 -18 -33 -20 -50 -10 -18 9
-20 17 -15 49 5 32 2 44 -19 69 -14 16 -42 40 -61 52 -35 21 -36 21 -75 3 -39
-17 -40 -17 -60 2 -19 19 -19 22 -2 60 9 21 16 43 14 49 -1 5 22 -14 51 -42
47 -44 62 -52 109 -58z m1347 53 c9 -31 7 -42 -7 -59 -16 -20 -17 -20 -56 -3
-22 10 -42 20 -45 22 -2 1 16 22 40 45 25 23 48 40 52 37 3 -3 11 -22 16 -42z
m-149 -40 c18 -11 17 -14 -19 -46 -43 -37 -53 -58 -54 -117 -1 -48 -12 -50
-74 -18 -40 21 -47 21 -78 8 -19 -8 -34 -12 -34 -9 0 3 -11 -8 -25 -24 -14
-17 -25 -39 -25 -50 0 -58 -36 -69 -82 -25 -15 15 -28 30 -28 34 0 3 27 16 60
28 43 16 63 29 72 49 17 35 100 77 127 63 20 -11 41 3 41 29 0 12 83 90 97 90
2 0 12 -5 22 -12z m-834 -164 c28 -8 77 -18 109 -22 37 -4 61 -12 64 -21 4
-11 -7 -13 -58 -7 -74 9 -190 43 -190 56 0 14 17 12 75 -6z m281 -87 c12 -12
-40 -97 -58 -97 -10 0 -29 18 -43 40 -28 45 -30 56 -12 63 17 7 105 2 113 -6z"/>
<path d="M1490 2438 c0 -12 -8 -18 -22 -18 -17 0 -19 -3 -10 -12 7 -7 12 -21
12 -32 0 -15 3 -17 12 -8 8 8 17 8 30 1 17 -9 19 -8 14 9 -5 14 -1 24 11 31
17 10 17 10 -1 11 -10 0 -25 8 -32 18 -13 16 -13 16 -14 0z"/>
<path d="M1296 2404 c-3 -8 -12 -14 -21 -14 -19 0 -20 -16 0 -24 9 -3 12 -12
8 -23 -6 -15 -4 -16 9 -5 8 7 23 9 33 6 14 -6 16 -3 10 14 -4 13 -2 22 4 22
19 0 12 15 -13 26 -20 9 -26 9 -30 -2z"/>
<path d="M1686 2411 c-4 -6 -16 -11 -28 -11 -17 0 -18 -3 -8 -15 7 -8 10 -22
6 -31 -4 -12 -1 -14 13 -9 11 3 22 1 26 -5 10 -16 25 -12 18 5 -3 9 2 22 13
30 17 13 17 14 2 15 -9 0 -21 7 -26 16 -6 11 -11 13 -16 5z"/>
<path d="M1100 2321 c0 -13 -7 -21 -17 -22 -14 0 -13 -3 5 -11 13 -7 21 -17
18 -25 -6 -15 10 -18 19 -3 3 6 15 10 27 10 17 0 18 3 8 15 -7 8 -9 22 -6 31
5 12 2 15 -10 10 -9 -4 -23 -1 -30 5 -11 9 -14 7 -14 -10z"/>
<path d="M1886 2332 c-5 -8 -16 -10 -28 -6 -17 5 -20 3 -14 -11 3 -10 1 -24
-5 -31 -9 -11 -7 -14 8 -14 10 0 24 -5 31 -12 9 -9 12 -8 12 4 0 9 9 20 21 23
17 6 18 9 6 18 -8 7 -17 19 -19 27 -3 11 -6 11 -12 2z"/>
<path d="M1379 2295 c-144 -29 -317 -141 -337 -219 -17 -61 17 -119 87 -150
37 -17 38 -17 87 13 27 17 85 40 128 51 148 37 303 21 424 -46 l63 -34 49 26
c60 33 86 76 76 129 -17 88 -177 196 -338 229 -91 19 -149 19 -239 1z m141
-65 c11 -27 17 -30 59 -30 l46 -1 -36 -32 c-34 -30 -36 -35 -27 -66 12 -43 6
-47 -32 -25 -30 18 -32 18 -61 1 -42 -23 -50 -22 -39 9 16 41 12 58 -20 79
-41 27 -38 35 14 35 42 0 45 2 56 35 13 40 22 39 40 -5z m-100 12 c-19 -9 -43
-26 -52 -37 -15 -19 -15 -22 6 -50 13 -18 23 -46 23 -70 l2 -41 -67 -19 c-60
-17 -119 -43 -147 -65 -18 -14 -82 20 -100 54 -16 29 -16 35 -2 62 43 83 215
177 331 182 l41 1 -35 -17z m303 -18 c33 -14 66 -32 74 -40 8 -8 18 -14 23
-14 17 0 89 -83 95 -110 8 -35 -15 -74 -55 -94 -27 -13 -33 -12 -82 14 -29 15
-83 35 -119 45 l-67 17 5 42 c3 22 13 52 23 66 23 33 10 67 -30 81 -16 6 -30
16 -30 21 0 17 96 0 163 -28z"/>
<path d="M1491 2198 c-1 -9 -10 -20 -22 -23 -16 -5 -18 -10 -8 -21 6 -7 9 -21
5 -29 -6 -17 9 -21 19 -5 4 7 13 6 27 -1 19 -10 20 -9 15 10 -3 13 1 25 11 31
16 9 16 9 1 10 -9 0 -24 10 -32 23 -13 18 -16 19 -16 5z"/>
<path d="M930 2183 c0 -10 -5 -24 -12 -31 -9 -9 -8 -12 5 -12 9 0 20 -8 26
-17 9 -17 10 -17 16 0 4 9 17 17 29 17 19 1 20 1 3 11 -13 7 -16 17 -11 32 6
19 5 20 -10 8 -13 -11 -19 -11 -31 -1 -12 10 -15 9 -15 -7z"/>
<path d="M2010 2184 c0 -11 -5 -25 -12 -32 -9 -9 -8 -12 5 -12 10 0 20 -7 23
-15 4 -8 10 -15 15 -15 5 0 9 7 9 15 0 9 9 15 23 15 21 1 21 1 3 15 -11 8 -16
21 -12 30 4 12 2 14 -13 6 -12 -7 -22 -6 -29 1 -9 9 -12 7 -12 -8z"/>
<path d="M836 2092 c-15 -3 -12 -11 25 -48 l43 -44 -34 -35 c-19 -19 -37 -35
-42 -35 -4 0 -25 19 -47 43 -39 40 -41 41 -41 17 0 -14 9 -44 20 -67 21 -47
46 -59 111 -50 39 5 42 3 107 -63 47 -48 77 -70 100 -74 31 -5 32 -5 21 17
-20 38 -70 97 -78 92 -4 -2 -22 10 -39 28 -29 30 -30 35 -21 75 11 49 -7 104
-39 121 -36 19 -67 27 -86 23z"/>
<path d="M2095 2080 c-11 -4 -31 -19 -43 -33 -21 -22 -23 -33 -20 -84 5 -55 3
-60 -35 -106 -21 -26 -43 -45 -47 -42 -11 7 -60 -52 -60 -71 0 -30 56 -1 122
64 66 65 68 66 119 63 66 -3 92 15 113 75 21 63 7 74 -33 24 -17 -22 -35 -40
-39 -40 -4 0 -24 17 -46 36 l-38 36 43 44 43 44 -29 -1 c-17 0 -39 -4 -50 -9z"/>
<path d="M1350 1965 c-84 -21 -192 -74 -186 -92 3 -8 6 -19 6 -25 0 -6 6 -8
14 -5 8 3 17 -1 20 -9 8 -22 8 -24 -7 -24 -26 0 -47 -36 -47 -81 0 -52 28
-103 69 -126 29 -17 47 -67 58 -164 l5 -46 -52 -21 -52 -22 -39 43 c-21 23
-38 45 -39 50 0 4 -7 7 -15 7 -29 0 -14 -32 50 -107 80 -93 125 -160 125 -185
0 -20 -33 -58 -51 -58 -25 0 -55 28 -168 161 -95 109 -121 135 -121 116 0 -44
179 -258 295 -352 43 -35 142 -105 149 -105 2 0 -13 53 -34 118 -21 64 -36
119 -34 121 2 3 17 -7 32 -20 58 -53 60 -54 81 -28 16 20 21 22 35 10 9 -8 15
-20 12 -28 -3 -7 -15 -81 -26 -164 l-21 -150 37 -47 c21 -26 40 -51 44 -55 4
-4 26 17 50 48 l43 55 -17 128 c-9 70 -18 143 -21 162 -3 19 -1 42 5 50 9 13
13 12 29 -7 11 -13 23 -23 27 -23 5 0 25 17 46 37 21 20 40 35 42 32 4 -4 -21
-94 -61 -223 -5 -15 1 -14 38 9 73 46 163 121 225 188 80 87 174 215 174 238
0 28 -11 19 -92 -79 -156 -187 -187 -212 -222 -176 -36 35 -21 73 80 198 71
88 93 121 85 129 -9 9 -24 -2 -59 -41 l-47 -53 -52 23 c-50 21 -53 24 -53 59
0 20 7 53 15 72 8 20 15 47 15 60 0 18 8 28 30 37 76 31 106 190 40 207 -25 7
-28 45 -2 41 12 -2 18 5 20 22 2 22 -5 28 -75 57 -43 18 -98 37 -123 43 -63
13 -215 11 -280 -5z m208 -68 c3 -30 7 -37 20 -33 28 7 192 18 192 12 0 -10
-23 -56 -29 -57 -3 0 -18 -3 -33 -5 -16 -3 -28 0 -28 6 0 5 8 10 18 10 11 0
27 9 37 20 21 24 19 24 -60 5 -76 -19 -269 -19 -355 -1 -36 8 -67 12 -70 9 -3
-2 6 -13 20 -24 l25 -20 -25 7 c-27 7 -42 23 -36 39 3 10 138 10 184 0 20 -5
22 -2 22 35 l0 41 58 -3 57 -3 3 -38z m95 11 c-34 -9 -53 -4 -53 15 0 12 7 12
41 3 40 -11 40 -11 12 -18z m-6 -92 c-28 -12 -260 -12 -310 0 -27 6 14 9 147
9 123 0 177 -3 163 -9z m98 -53 c-5 -27 -19 -49 -46 -74 -39 -37 -39 -37 -38
-110 1 -67 2 -70 11 -39 15 55 31 63 25 11 -7 -53 -41 -92 -114 -126 -68 -33
-107 -31 -179 5 -78 39 -105 75 -111 154 l-6 61 22 -19 c21 -19 21 -19 21 5 0
15 -15 39 -40 63 -29 28 -40 47 -40 68 0 16 3 28 8 26 54 -28 100 -43 166 -52
66 -10 82 -16 102 -39 13 -16 24 -32 24 -36 0 -15 -78 -16 -96 -1 -17 15 -29
-6 -14 -25 12 -14 112 -31 128 -21 5 3 2 27 -8 58 l-17 53 26 7 c14 4 47 12
72 18 26 7 59 20 75 31 16 10 30 19 32 19 2 0 0 -17 -3 -37z m-535 -26 c0 -18
7 -41 15 -51 8 -11 15 -29 15 -40 -1 -19 -3 -19 -25 7 -29 33 -40 67 -31 102
9 34 26 22 26 -18z m600 -5 c0 -21 -10 -52 -22 -72 -21 -33 -23 -34 -26 -12
-2 13 1 28 6 35 5 7 13 31 17 55 8 50 25 46 25 -6z m-77 -88 c3 -4 2 -15 -4
-26 -8 -15 -13 -17 -25 -7 -11 9 -12 15 -3 25 12 15 22 17 32 8z m-242 -382
c-11 -4 -103 41 -143 70 -24 16 -28 27 -28 65 l0 46 90 -89 c49 -49 86 -90 81
-92z m189 139 c5 -11 10 -24 10 -30 0 -5 -39 -32 -87 -59 l-87 -51 -12 27 c-6
15 -18 33 -27 41 -32 26 -20 41 31 41 32 0 59 8 87 25 49 30 71 31 85 6z m73
-66 c20 -14 20 -46 1 -52 -6 -2 -14 4 -17 14 -2 10 -8 26 -12 36 -9 20 3 22
28 2z m-495 -25 c-11 -33 -31 -35 -36 -5 -4 18 13 35 35 35 9 0 9 -8 1 -30z
m86 -14 c25 -19 66 -42 91 -52 l46 -17 -48 -49 -47 -48 -51 50 c-49 48 -50 51
-47 100 2 27 6 50 8 50 2 0 24 -15 48 -34z m321 -108 c-26 -24 -50 -44 -54
-46 -4 -1 -26 18 -50 42 l-43 44 35 11 c19 7 59 29 89 50 l53 39 8 -48 8 -48
-46 -44z m-145 -19 c9 -16 8 -24 -5 -39 -9 -10 -14 -25 -10 -32 3 -7 -3 -2
-14 11 -22 24 -25 39 -15 65 9 22 31 20 44 -5z m-241 -101 c14 -37 2 -53 -22
-30 -11 12 -17 27 -14 36 9 23 26 20 36 -6z m472 6 c11 -14 10 -18 -6 -30 -33
-24 -45 -11 -29 30 8 20 18 20 35 0z m-255 -9 c-3 -8 -1 -15 4 -15 11 0 20
-51 35 -195 6 -52 4 -64 -15 -88 -28 -35 -36 -34 -56 5 -15 29 -15 40 1 147
21 145 24 161 31 161 3 0 4 -7 0 -15z"/>
<path d="M1417 1553 c-15 -17 -10 -18 79 -18 52 0 94 2 94 6 0 33 -144 43
-173 12z"/>
<path d="M1458 1503 c-8 -10 0 -13 41 -13 58 0 61 15 6 22 -22 2 -40 -1 -47
-9z"/>
<path d="M1904 1889 c-10 -17 13 -36 27 -22 12 12 4 33 -11 33 -5 0 -12 -5
-16 -11z"/>
<path d="M659 1814 c-19 -46 -18 -75 3 -101 15 -19 28 -16 28 7 0 11 7 20 15
20 9 0 15 -9 15 -23 0 -15 39 -68 110 -149 61 -70 110 -136 110 -147 0 -23 25
-51 46 -51 34 0 54 20 54 54 0 34 -13 46 -48 46 -22 0 -239 249 -248 285 -4
14 -13 29 -20 32 -15 5 -20 33 -6 33 23 0 52 -34 52 -60 0 -16 4 -31 9 -35 14
-8 23 31 16 66 -6 24 -16 35 -52 50 -24 10 -49 19 -54 19 -5 0 -19 -21 -30
-46z m31 -36 c0 -27 -13 -58 -21 -52 -10 6 -12 48 -2 57 10 11 23 8 23 -5z
m320 -358 c0 -13 -7 -20 -20 -20 -11 0 -20 5 -20 11 0 5 4 7 10 4 6 -3 7 1 4
9 -4 11 0 16 10 16 9 0 16 -8 16 -20z"/>
<path d="M2252 1840 c-46 -21 -63 -50 -55 -93 7 -36 23 -34 23 3 0 29 29 70
50 70 14 0 13 -27 -2 -32 -6 -2 -16 -18 -22 -36 -17 -49 -223 -282 -250 -282
-45 0 -63 -52 -28 -83 36 -33 82 -15 82 30 0 15 29 57 81 116 121 137 149 172
149 191 0 23 15 20 26 -5 9 -20 11 -21 27 -5 9 10 17 27 17 39 0 30 -33 107
-45 107 -5 0 -29 -9 -53 -20z m87 -75 c0 -5 -4 -19 -8 -29 -9 -23 -16 -14 -26
32 -7 32 -6 33 14 20 12 -7 21 -17 20 -23z m-333 -341 c-3 -8 -2 -12 4 -9 6 3
10 1 10 -5 0 -6 -8 -10 -17 -8 -24 4 -30 38 -8 38 11 0 15 -5 11 -16z"/>
<path d="M837 1812 c-23 -26 -16 -39 57 -112 45 -43 56 -61 56 -86 0 -24 8
-39 31 -58 44 -37 54 -32 28 14 -22 38 -22 40 -4 60 24 26 60 26 79 -2 22 -31
31 -16 12 21 -17 32 -53 48 -83 37 -13 -5 -35 13 -88 70 -69 76 -70 76 -88 56z"/>
<path d="M2062 1754 c-40 -43 -75 -73 -81 -69 -23 13 -71 -6 -86 -35 -23 -45
-18 -56 14 -26 l28 27 29 -24 29 -25 -18 -36 c-20 -43 -10 -46 33 -9 25 21 31
32 26 53 -4 23 5 37 65 96 38 37 69 74 69 80 0 6 -8 19 -19 28 -18 16 -22 14
-89 -60z m37 -25 c-34 -38 -65 -72 -70 -75 -17 -10 -9 13 11 31 11 10 18 21
15 24 -8 8 87 101 97 95 5 -3 -19 -37 -53 -75z"/>
<path d="M573 1684 c-14 -16 -21 -34 -19 -52 2 -15 4 -33 5 -39 0 -7 8 -13 16
-13 8 0 15 -4 15 -9 0 -19 89 4 91 23 1 6 3 24 5 40 2 22 -4 35 -23 51 -33 29
-64 28 -90 -1z m72 -49 c0 -25 -4 -30 -25 -30 -16 0 -26 6 -28 18 -6 30 6 49
30 45 18 -2 23 -9 23 -33z"/>
<path d="M2330 1668 c0 -6 -3 -9 -6 -5 -12 12 -31 -19 -30 -49 1 -23 8 -33 35
-46 38 -18 63 -10 79 27 11 23 -4 75 -21 76 -7 0 -22 2 -34 5 -13 2 -23 -1
-23 -8z m45 -53 c0 -30 -39 -27 -43 3 -3 20 0 23 20 20 15 -2 23 -10 23 -23z"/>
<path d="M724 1589 c-10 -17 13 -36 27 -22 12 12 4 33 -11 33 -5 0 -12 -5 -16
-11z"/>
<path d="M1877 1549 c-33 -37 -51 -50 -64 -47 -24 6 -48 -10 -57 -40 -9 -29 7
-29 27 1 14 21 16 21 32 5 25 -24 12 -50 -20 -42 -30 7 -34 -12 -5 -21 28 -9
70 20 70 46 0 12 20 45 45 74 38 43 43 54 31 64 -11 9 -23 2 -59 -40z"/>
<path d="M1045 1580 c-3 -5 14 -32 39 -58 26 -27 46 -59 46 -70 0 -27 42 -56
70 -47 29 9 25 28 -5 21 -32 -8 -45 18 -21 42 16 16 19 15 37 -7 24 -29 33
-23 20 13 -10 24 -21 31 -45 27 -5 -1 -20 8 -35 21 -21 19 -23 19 -11 3 8 -11
-6 -1 -31 23 -47 44 -54 48 -64 32z"/>
<path d="M663 1533 c-13 -2 -23 -9 -23 -14 0 -6 -4 -8 -10 -4 -12 8 -50 -16
-50 -32 0 -7 -4 -13 -10 -13 -15 0 -41 -59 -42 -95 -1 -70 44 -155 81 -155 5
0 12 -7 15 -16 3 -8 10 -13 15 -9 5 3 12 1 15 -4 5 -8 96 -9 104 -1 1 1 7 3
12 4 6 0 14 7 19 14 5 8 12 14 17 14 27 1 81 79 68 99 -3 6 0 15 7 20 9 6 10
12 4 17 -5 4 -11 23 -13 42 -1 19 -8 38 -15 42 -7 4 -8 8 -3 8 5 0 -1 11 -14
25 -13 14 -29 25 -37 25 -7 0 -13 5 -13 10 0 6 -9 10 -19 10 -11 0 -23 5 -26
10 -5 8 -11 7 -21 -1 -10 -8 -14 -8 -14 0 0 11 -7 12 -47 4z m52 -80 c-10 -53
-25 -58 -52 -18 -13 19 -23 36 -23 39 0 6 29 13 59 15 22 1 23 -2 16 -36z m54
18 c11 -7 10 -14 -8 -40 -26 -36 -46 -41 -37 -8 3 12 6 30 6 40 0 18 17 22 39
8z m-119 -41 c13 -18 19 -37 15 -49 -7 -24 -72 -48 -87 -33 -15 15 1 55 19 48
8 -3 27 -8 41 -11 22 -4 21 -2 -8 11 -19 9 -37 18 -39 20 -4 4 28 44 35 44 1
0 12 -13 24 -30z m170 -14 c0 -7 -18 -17 -39 -22 l-40 -11 26 34 c20 26 29 31
39 22 8 -6 14 -17 14 -23z m10 -57 c0 -26 -3 -29 -20 -25 -11 3 -29 9 -41 12
-26 7 -20 26 12 35 44 12 49 10 49 -22z m-160 -17 c0 -5 -12 -20 -28 -35 -26
-25 -53 -30 -69 -12 -4 4 -2 5 6 0 10 -6 12 -3 7 12 -5 16 1 21 31 30 51 14
53 14 53 5z m123 -18 c35 -8 34 -26 -4 -58 -39 -33 -45 -33 -53 5 -11 55 -8
71 12 65 9 -3 29 -8 45 -12z m-124 -43 c-8 -22 -16 -30 -26 -27 -8 3 -17 6
-21 6 -3 0 7 13 23 30 16 16 30 28 32 27 2 -2 -2 -18 -8 -36z m52 -2 c8 -37 4
-49 -14 -49 -30 1 -37 15 -25 53 14 45 30 43 39 -4z"/>
<path d="M2173 1498 c-12 -6 -27 -24 -34 -40 -10 -25 -9 -33 8 -56 30 -40 83
-42 115 -4 18 22 38 31 87 41 35 7 65 10 68 7 11 -11 43 15 43 35 0 30 -25 33
-110 14 -72 -16 -79 -17 -101 -1 -27 18 -44 19 -76 4z m56 -42 c16 -19 -4 -59
-26 -54 -26 5 -39 34 -24 52 17 20 35 20 50 2z"/>
<path d="M2341 1386 c-9 -10 -8 -16 3 -25 10 -9 16 -8 25 3 9 10 8 16 -3 25
-10 9 -16 8 -25 -3z"/>
<path d="M1032 1367 c-12 -13 -22 -27 -22 -31 0 -12 161 -196 180 -205 24 -13
40 -2 40 26 0 17 -27 60 -82 129 -46 57 -86 103 -89 103 -3 1 -15 -9 -27 -22z
m103 -103 c81 -98 89 -111 75 -119 -5 -3 -10 -1 -10 6 0 6 -31 48 -68 93 -74
88 -88 106 -75 105 4 0 39 -38 78 -85z"/>
<path d="M1846 1283 c-47 -59 -86 -115 -86 -124 0 -9 7 -22 15 -29 13 -11 20
-9 41 11 34 31 177 199 173 202 -2 1 -16 12 -30 25 l-26 23 -87 -108z m79 30
c-16 -14 -23 -22 -15 -18 8 3 2 -5 -15 -19 -16 -14 -30 -30 -30 -35 0 -5 -12
-19 -28 -31 -15 -12 -25 -26 -22 -30 3 -5 -4 -14 -16 -21 -34 -18 -20 7 63
109 49 61 76 87 83 81 7 -7 0 -19 -20 -36z"/>
<path d="M2252 1330 c-11 -12 -25 -19 -30 -16 -14 9 -33 -19 -26 -38 4 -10 0
-18 -10 -22 -19 -7 -22 -45 -3 -41 6 1 12 -7 12 -18 1 -29 13 -45 30 -38 9 3
22 0 30 -7 13 -11 20 -10 40 0 14 7 28 10 32 7 11 -12 31 13 26 33 -4 14 0 20
11 20 21 0 20 29 -1 47 -13 10 -15 16 -5 19 6 3 12 10 12 15 0 10 -45 31 -68
33 -7 1 -16 7 -21 14 -7 11 -13 9 -29 -8z m66 -58 c25 -33 1 -92 -37 -92 -31
0 -61 30 -61 60 0 53 64 74 98 32z"/>
<path d="M2242 1268 c-27 -27 -6 -68 35 -68 29 0 48 33 33 60 -12 22 -49 27
-68 8z m56 -26 c4 -26 -22 -40 -43 -22 -11 9 -12 17 -4 32 13 25 43 19 47 -10z"/>
<path d="M2066 1288 c-9 -12 -16 -28 -16 -35 0 -17 -121 -153 -136 -153 -19 0
-46 -44 -38 -63 15 -40 89 -19 82 23 -4 24 119 160 138 153 20 -7 54 25 54 51
0 20 -1 20 -19 -4 -16 -21 -21 -22 -35 -11 -15 13 -15 16 -1 37 13 21 13 24 1
24 -8 0 -22 -10 -30 -22z m-137 -244 c-6 -7 -17 -10 -25 -7 -17 6 -18 15 -2
31 17 17 43 -5 27 -24z"/>
<path d="M934 1251 c14 -15 14 -20 3 -30 -11 -9 -17 -8 -27 4 -14 17 -30 20
-30 5 0 -15 40 -51 49 -45 14 8 111 -107 111 -130 0 -41 45 -60 70 -30 17 21
4 62 -23 72 -31 11 -117 106 -117 130 0 23 -18 43 -39 43 -11 0 -11 -3 3 -19z
m163 -187 c8 -21 -13 -42 -28 -27 -13 13 -5 43 11 43 6 0 13 -7 17 -16z"/>
<path d="M815 1154 c-11 -8 -25 -12 -32 -10 -13 5 -26 -9 -29 -32 -2 -8 -10
-22 -19 -32 -15 -17 -15 -20 0 -43 8 -14 15 -29 14 -33 -4 -24 4 -32 36 -38
19 -4 35 -12 35 -18 0 -6 9 -8 23 -3 12 4 38 10 57 14 19 3 35 11 35 16 2 21
18 60 28 67 7 4 6 17 -5 40 -9 18 -19 40 -22 49 -3 10 -15 17 -32 17 -16 0
-30 5 -32 11 -5 15 -33 13 -57 -5z m25 -47 c0 -29 -18 -47 -47 -47 -31 0 -29
24 3 49 34 27 44 26 44 -2z m49 13 c10 -5 24 -22 30 -39 10 -24 10 -34 -3 -59
-24 -46 -66 -57 -66 -17 0 14 4 25 9 25 17 0 21 33 6 50 -17 19 -20 50 -4 50
6 0 18 -4 28 -10z m-61 -82 c14 -14 16 -44 3 -52 -12 -8 -61 32 -61 50 0 17
41 19 58 2z"/>
<path d="M2104 1152 c-6 -4 -13 -14 -16 -22 -2 -8 -13 -15 -24 -15 -15 0 -18
-6 -16 -27 2 -20 -2 -28 -13 -28 -8 0 -15 -9 -15 -20 0 -11 7 -20 15 -20 11 0
15 -8 13 -27 -2 -22 1 -28 17 -28 11 0 21 -8 23 -18 4 -19 27 -23 38 -6 4 8 9
8 17 0 17 -17 34 -13 40 9 4 14 10 18 22 14 21 -8 40 17 22 28 -9 6 -7 12 6
22 9 7 17 19 17 26 0 7 -8 19 -17 27 -13 10 -14 16 -6 19 19 8 3 34 -22 34
-14 0 -25 7 -28 21 -5 18 -8 19 -27 7 -16 -10 -22 -10 -28 -1 -4 7 -12 9 -18
5z m78 -69 c24 -21 23 -58 -3 -84 -27 -27 -66 -21 -92 12 -16 23 -17 30 -7 50
7 13 18 27 24 31 19 13 59 9 78 -9z"/>
<path d="M2106 1075 c-33 -33 -13 -75 36 -75 20 0 31 7 37 23 18 46 -38 86
-73 52z m52 -7 c30 -30 -1 -73 -36 -51 -23 14 -25 29 -7 47 20 19 27 20 43 4z"/>
<path d="M684 1119 c-10 -17 13 -36 27 -22 12 12 4 33 -11 33 -5 0 -12 -5 -16
-11z"/>
<path d="M2264 1099 c-10 -17 13 -36 27 -22 12 12 4 33 -11 33 -5 0 -12 -5
-16 -11z"/>
<path d="M982 1003 c-13 -3 -21 -10 -19 -16 3 -7 9 -11 15 -10 23 5 24 -38 2
-62 -17 -18 -29 -22 -55 -18 -69 11 -115 -87 -65 -137 29 -29 84 -27 115 5 14
13 25 29 25 34 0 6 12 8 30 5 25 -6 30 -3 30 14 0 11 7 25 15 32 11 9 12 17 5
30 -14 27 -13 28 23 35 17 4 44 14 60 21 24 13 27 13 27 -2 0 -9 -9 -18 -20
-21 -11 -3 -20 -9 -20 -14 0 -5 -6 -9 -13 -9 -7 0 -21 -13 -30 -30 -10 -16
-23 -30 -28 -30 -6 0 -7 -4 -4 -10 3 -5 3 -16 -2 -22 -10 -17 -13 -68 -3 -68
5 0 6 -9 3 -20 -3 -11 0 -20 6 -20 6 0 11 -7 11 -15 0 -8 7 -15 15 -15 8 0 15
-7 15 -15 0 -8 7 -15 15 -15 8 0 15 -5 15 -11 0 -6 9 -9 20 -6 11 3 20 2 20
-3 0 -13 91 -4 100 9 4 8 13 10 20 6 7 -4 13 1 17 14 3 11 10 18 15 15 5 -3
12 3 15 15 3 12 10 21 15 21 6 0 8 9 5 20 -3 11 -1 20 4 20 5 0 9 7 9 15 0 8
-5 15 -11 15 -8 0 -8 4 0 14 8 9 8 16 2 20 -6 4 -8 13 -5 21 4 8 -1 18 -10 21
-9 3 -13 10 -10 16 3 5 -3 12 -15 15 -12 3 -21 12 -21 20 0 9 -6 13 -14 10 -8
-3 -17 1 -20 8 -4 10 -17 14 -46 11 -37 -4 -40 -2 -40 20 0 13 5 24 10 24 6 0
10 -4 10 -10 0 -5 5 -10 10 -10 6 0 10 7 10 15 0 8 -8 15 -19 15 -10 0 -24 7
-31 15 -14 17 -60 21 -60 5 0 -5 12 -10 27 -10 56 0 6 -18 -69 -25 -75 -6 -78
-6 -78 14 0 12 6 21 15 21 8 0 15 5 15 10 0 10 -16 11 -58 3z m100 -74 c-28
-8 -32 -13 -26 -32 10 -34 10 -39 -1 -43 -6 -3 -16 14 -21 35 -12 43 -7 48 56
49 21 0 19 -2 -8 -9z m-60 -86 c-7 -20 -21 -15 -33 11 -8 17 -8 30 2 47 l12
24 12 -35 c7 -19 10 -41 7 -47z m-67 7 c18 -20 17 -20 -13 -20 -18 0 -32 -4
-32 -10 0 -5 14 -10 30 -10 28 0 30 -2 20 -20 -12 -23 -59 -27 -78 -8 -28 28
-3 88 37 88 10 0 26 -9 36 -20z m295 11 c0 -4 -5 -23 -12 -42 l-11 -33 -13 34
c-17 49 -17 50 11 50 14 0 25 -4 25 -9z m-51 -33 c15 -41 9 -45 -29 -17 -29
22 -30 25 -14 36 26 19 31 17 43 -19z m95 19 c18 -13 17 -15 -12 -35 -40 -29
-41 -28 -28 13 12 39 15 41 40 22z m-109 -61 c19 -14 17 -15 -28 -16 -27 0
-46 3 -44 8 2 4 7 15 10 25 7 19 20 15 62 -17z m145 -3 c0 -8 -14 -13 -37 -13
l-38 1 30 24 c29 24 44 20 45 -12z m-140 -31 c0 -7 -52 -42 -63 -42 -7 0 -15
38 -9 44 8 9 72 7 72 -2z m140 -18 c0 -14 -3 -24 -7 -22 -75 36 -82 48 -28 48
31 0 35 -3 35 -26z m-132 -37 c-13 -42 -18 -44 -42 -18 -16 18 -15 19 16 39
18 12 34 20 35 18 1 -1 -3 -19 -9 -39z m87 19 c30 -24 30 -25 10 -40 -27 -21
-32 -20 -38 7 -2 12 -8 30 -12 40 -10 24 5 21 40 -7z m-35 -53 c0 -7 -11 -13
-25 -13 -28 0 -30 4 -13 51 l12 34 12 -30 c7 -17 13 -36 14 -42z"/>
<path d="M1874 961 c-39 -18 -73 -55 -87 -93 -4 -11 -17 -18 -32 -18 -27 0
-34 17 -10 26 8 4 15 11 15 16 0 14 -113 -1 -122 -16 -5 -6 2 -19 14 -29 16
-13 24 -15 26 -7 3 7 -2 16 -9 21 -10 6 -4 9 17 9 l32 0 -22 -70 c-20 -65 -23
-70 -50 -70 -40 0 -96 -58 -96 -100 0 -65 43 -109 107 -110 33 0 48 6 72 31
43 43 43 98 1 141 -29 29 -40 58 -21 58 14 0 81 -85 81 -102 0 -21 26 -41 45
-35 8 4 21 22 29 42 14 33 18 35 62 35 40 0 51 5 84 38 113 113 4 298 -136
233z m109 -49 c66 -69 31 -174 -65 -197 -27 -7 -28 -6 -22 26 3 19 15 41 25
51 24 21 24 54 0 67 -10 6 -35 8 -55 4 -43 -7 -47 7 -10 36 36 28 79 27 109
-4 43 -43 27 -126 -30 -151 -24 -10 -26 -13 -9 -14 24 0 69 45 77 78 8 33 -11
89 -36 107 -25 17 -79 20 -107 5 -11 -6 -26 -23 -34 -38 -9 -15 -15 -21 -16
-14 0 8 13 27 29 43 41 41 105 41 144 1z m-93 -86 c0 -13 -28 -26 -57 -26 -20
0 -15 28 5 33 34 9 52 7 52 -7z m-105 -25 c-14 -12 -65 -23 -65 -13 0 16 13
22 44 22 17 0 26 -4 21 -9z m95 -31 c0 -20 -18 -26 -36 -12 -5 4 -1 -1 10 -11
10 -10 17 -20 14 -22 -2 -3 -18 9 -34 27 -16 17 -24 28 -17 24 6 -3 14 -2 18
4 12 19 45 11 45 -10z m-50 -69 c0 -5 -6 -11 -14 -14 -9 -4 -28 11 -50 38
l-36 44 27 3 c22 2 33 -4 51 -30 12 -18 22 -37 22 -41z m-170 -27 c0 -7 -7
-17 -16 -22 -22 -12 -14 -47 11 -47 16 0 20 7 21 33 2 72 46 55 50 -19 2 -31
-3 -43 -23 -59 -14 -11 -37 -20 -52 -19 -28 1 -23 3 23 14 44 9 26 14 -21 5
-33 -5 -46 -4 -55 8 -14 16 -12 65 4 97 9 20 9 20 -6 1 -9 -11 -16 -15 -16
-10 0 17 22 33 38 27 9 -4 13 -2 9 4 -5 7 0 9 13 6 11 -3 20 -11 20 -19z"/>
<path d="M1390 642 c-34 -12 -51 -58 -26 -74 17 -12 68 -10 61 2 -3 6 -2 10 3
10 15 0 9 47 -8 58 -8 5 -22 7 -30 4z m20 -42 c0 -11 -7 -20 -15 -20 -8 0 -15
9 -15 20 0 11 7 20 15 20 8 0 15 -9 15 -20z"/>
<path d="M1490 620 c0 -5 -7 -10 -16 -10 -11 0 -14 -5 -10 -16 3 -9 6 -19 6
-24 0 -4 11 -7 25 -7 14 0 25 3 25 7 0 5 2 14 5 22 3 7 -4 19 -15 26 -12 7
-20 8 -20 2z"/>
</g>
</svg>
