<?xml version="1.0" standalone="no"?>
<!DOCTYPE svg PUBLIC "-//W3C//DTD SVG 20010904//EN"
 "http://www.w3.org/TR/2001/REC-SVG-20010904/DTD/svg10.dtd">
<svg version="1.0" xmlns="http://www.w3.org/2000/svg"
 width="300.000000pt" height="300.000000pt" viewBox="0 0 300.000000 300.000000"
 preserveAspectRatio="xMidYMid meet">
<metadata>
Created by potrace 1.10, written by Peter Selinger 2001-2011
</metadata>
<g transform="translate(0.000000,300.000000) scale(0.100000,-0.100000)"
fill="#000000" stroke="none">
<path d="M1420 2713 c-11 -16 -29 -39 -39 -52 -20 -27 -21 -27 -92 30 -25 20
-30 21 -79 8 -59 -15 -90 -46 -90 -90 0 -46 -31 -55 -84 -24 -42 24 -47 25
-78 12 -18 -8 -47 -29 -65 -47 -29 -28 -32 -36 -27 -74 8 -56 -12 -75 -60 -58
-49 18 -71 15 -106 -14 -50 -42 -65 -80 -50 -125 11 -33 11 -42 -3 -63 -14
-21 -23 -24 -66 -23 -59 2 -78 -12 -111 -82 l-23 -50 27 -45 c14 -24 26 -46
26 -49 0 -15 -42 -47 -62 -47 -52 0 -98 -64 -98 -137 0 -11 15 -39 34 -61 41
-50 39 -85 -8 -109 -58 -29 -66 -42 -66 -102 0 -66 16 -95 66 -116 29 -12 34
-19 34 -46 0 -21 -10 -43 -30 -66 -32 -37 -37 -68 -19 -124 17 -49 36 -67 80
-74 51 -9 75 -48 54 -86 -37 -64 -38 -72 -15 -116 35 -66 63 -87 115 -84 38 2
46 -2 61 -24 14 -22 15 -32 5 -66 -11 -36 -10 -44 9 -74 12 -19 35 -44 52 -56
28 -20 35 -21 77 -10 69 17 85 8 77 -45 -5 -37 -2 -48 20 -74 51 -59 107 -75
151 -40 44 35 83 20 83 -30 0 -43 37 -77 97 -91 41 -9 71 4 104 44 18 24 69
17 69 -9 0 -9 13 -29 29 -45 54 -54 148 -34 183 39 19 39 43 38 88 -2 44 -40
61 -43 113 -21 42 17 77 59 77 90 0 12 7 29 16 36 14 11 22 10 55 -9 48 -28
70 -28 117 2 57 36 65 50 58 99 -8 53 9 73 51 63 76 -19 79 -19 117 15 55 48
67 77 50 118 -18 42 -18 44 5 69 13 16 30 22 60 22 56 0 75 12 106 64 30 52
32 85 5 119 -37 47 -17 94 43 104 44 7 72 35 86 88 16 59 14 66 -24 108 -19
21 -35 48 -35 61 0 23 28 56 47 56 5 0 19 10 31 23 18 19 22 35 22 83 0 64 -8
77 -72 117 -37 23 -37 65 -2 98 43 40 47 55 30 113 -9 29 -24 60 -33 69 -19
17 -20 17 -58 17 -15 0 -31 10 -42 26 -16 25 -16 28 9 73 l25 48 -22 44 c-33
65 -59 84 -112 84 -37 0 -49 5 -65 25 -17 24 -18 29 -4 60 17 40 7 68 -41 111
-48 44 -63 49 -105 32 -35 -14 -40 -14 -57 1 -15 13 -18 26 -14 57 5 34 2 44
-21 68 -15 16 -45 37 -67 46 -39 18 -39 18 -79 -9 -32 -21 -44 -24 -60 -16
-11 6 -20 19 -20 30 0 53 -42 92 -113 105 -35 7 -42 4 -77 -30 -44 -43 -71
-42 -90 6 -18 43 -47 59 -106 59 -45 0 -55 -4 -74 -27z m145 -53 c10 -44 12
-45 59 -54 52 -11 54 -9 96 52 15 22 16 22 67 5 l52 -17 3 -49 c3 -48 4 -51
45 -68 l41 -18 38 33 38 33 48 -30 c26 -17 48 -34 48 -38 0 -5 -8 -24 -17 -44
-9 -19 -15 -36 -12 -38 2 -2 23 -18 46 -36 l42 -32 40 23 41 23 42 -42 42 -42
-23 -41 -22 -40 37 -48 c21 -26 39 -49 41 -51 1 -2 22 4 47 12 l45 16 31 -50
c16 -27 30 -52 30 -56 0 -4 -14 -22 -31 -40 l-32 -32 24 -55 24 -56 51 0 51 0
15 -54 15 -55 -44 -31 c-24 -18 -42 -38 -39 -45 2 -7 7 -33 11 -58 7 -45 8
-46 56 -57 l49 -12 0 -64 c0 -45 -4 -64 -12 -64 -7 0 -29 -5 -49 -10 -35 -10
-37 -13 -46 -71 l-10 -60 44 -31 c46 -34 45 -29 18 -108 -11 -33 -15 -35 -61
-38 -49 -3 -49 -3 -72 -57 l-24 -54 32 -40 32 -39 -28 -52 c-31 -54 -30 -54
-105 -35 -20 5 -30 -2 -62 -45 l-39 -52 25 -37 26 -38 -45 -44 c-48 -47 -41
-47 -109 -3 -18 11 -25 8 -63 -24 l-44 -38 17 -42 c20 -48 19 -49 -52 -87
l-34 -18 -33 32 -34 33 -46 -17 -46 -18 0 -51 0 -51 -55 -16 -56 -17 -25 45
c-18 30 -31 42 -43 39 -9 -3 -33 -8 -53 -11 -35 -7 -37 -10 -44 -51 l-6 -44
-59 0 -59 0 -11 45 c-6 25 -14 45 -18 45 -3 1 -25 5 -49 9 -42 8 -43 8 -72
-34 l-29 -42 -50 16 -51 15 0 51 c0 50 0 50 -45 68 l-45 19 -39 -31 c-21 -17
-41 -31 -44 -31 -3 0 -26 14 -51 31 l-46 30 21 41 c11 22 17 44 12 47 -4 4
-26 21 -48 38 l-40 31 -35 -24 c-19 -13 -39 -24 -45 -24 -5 1 -27 20 -47 44
l-37 43 20 32 c23 38 20 53 -25 105 -32 37 -35 38 -66 27 -51 -17 -56 -15 -89
42 l-30 52 35 36 35 35 -26 57 -26 57 -49 0 -49 0 -16 57 -17 57 41 36 c39 34
40 36 34 85 -7 63 -14 71 -63 79 l-40 6 0 64 0 64 49 12 48 11 7 57 6 57 -42
36 -41 35 17 52 18 52 48 0 49 0 26 57 26 57 -34 35 -34 36 31 51 c26 42 35
50 51 44 67 -24 71 -23 111 31 l38 52 -22 38 -22 38 43 44 42 44 35 -23 c19
-13 39 -23 43 -23 5 -1 27 14 50 31 23 18 43 33 45 34 1 1 -6 20 -17 44 l-19
44 44 28 c25 15 50 28 56 28 7 0 26 -14 43 -30 l31 -30 47 20 c47 21 47 21 47
69 0 47 0 48 41 60 23 7 46 14 53 17 6 2 23 -15 38 -39 l28 -44 49 11 c45 9
51 13 56 40 14 69 12 67 73 64 l56 -3 11 -45z"/>
<path d="M1340 2515 c-143 -29 -284 -95 -410 -191 -60 -46 -200 -188 -200
-204 0 -22 21 -8 66 46 58 68 171 159 265 215 86 52 239 105 325 115 41 4 64
11 61 18 -5 16 -33 16 -107 1z"/>
<path d="M1550 2517 c0 -10 18 -16 62 -21 88 -9 245 -65 340 -122 53 -32 121
-87 192 -156 102 -99 126 -118 126 -102 0 14 -118 138 -180 189 -147 120 -317
196 -492 220 -38 5 -48 3 -48 -8z"/>
<path d="M1335 2455 c-68 -15 -141 -43 -218 -81 -229 -116 -441 -358 -513
-586 -10 -35 -24 -60 -35 -63 -46 -15 -66 -102 -35 -150 22 -34 20 -58 -8
-100 -28 -41 -41 -101 -31 -147 10 -48 51 -115 83 -133 18 -11 43 -50 79 -123
28 -59 74 -135 102 -170 47 -57 63 -92 43 -92 -5 0 -18 14 -30 30 -22 30 -42
39 -42 20 0 -5 27 -39 61 -75 60 -63 114 -93 145 -81 9 3 45 -14 87 -43 40
-26 91 -58 114 -69 65 -33 228 -72 328 -78 49 -3 100 -7 113 -10 30 -6 28 -24
-3 -24 -14 0 -25 -4 -25 -10 0 -19 100 -6 203 27 49 15 57 38 9 27 -25 -6 -26
-5 -10 11 9 10 46 30 82 45 151 64 333 219 438 372 86 128 158 318 158 419 0
19 10 37 30 56 37 32 39 66 5 97 -20 18 -25 33 -25 70 0 61 -52 221 -106 327
-74 144 -223 306 -372 406 -68 45 -184 98 -259 119 -79 22 -289 27 -368 9z
m201 -35 c17 -1 17 -2 4 -13 -9 -7 -14 -19 -12 -28 2 -12 -5 -16 -28 -15 -20
1 -30 6 -30 17 0 8 -5 20 -12 27 -9 9 -8 12 5 12 10 0 20 7 24 16 6 16 7 16
18 0 7 -9 21 -16 31 -16z m-107 -27 c12 -43 8 -53 -23 -53 -20 0 -25 6 -29 38
-5 44 -2 52 23 52 13 0 22 -11 29 -37z m189 -11 c3 -41 2 -42 -28 -42 -34 0
-39 19 -18 65 18 40 42 28 46 -23z m-275 18 c16 0 17 -3 7 -15 -7 -8 -9 -22
-6 -31 5 -13 2 -15 -19 -10 -14 4 -25 2 -25 -4 0 -5 -4 -10 -10 -10 -5 0 -10
9 -10 20 0 11 -4 20 -10 20 -5 0 -10 5 -10 10 0 6 6 10 14 10 8 0 17 8 20 17
5 12 9 14 18 5 7 -7 21 -12 31 -12z m384 -10 c14 0 14 -2 -1 -19 -10 -11 -15
-25 -11 -30 3 -6 2 -11 -4 -11 -5 0 -13 5 -16 10 -4 6 -15 8 -26 5 -14 -5 -17
-3 -13 9 4 9 1 23 -6 31 -10 12 -9 15 8 15 12 0 24 5 28 11 5 8 10 6 16 -5 5
-9 16 -16 25 -16z m-479 -47 c16 -36 16 -38 -14 -52 -31 -14 -28 -16 -48 32
-15 37 -15 38 7 46 29 11 39 6 55 -26z m565 -21 c-20 -48 -18 -47 -52 -32
l-30 12 19 39 c19 36 21 37 49 28 l29 -10 -15 -37z m-669 7 c14 2 17 -1 12
-14 -3 -10 -1 -24 5 -31 9 -11 7 -14 -9 -14 -12 0 -24 -4 -27 -10 -9 -15 -25
-12 -25 4 0 8 -8 17 -17 21 -17 6 -17 7 0 16 9 6 17 17 17 25 0 10 5 12 13 7
6 -4 21 -6 31 -4z m773 -26 c12 -9 11 -12 -6 -18 -12 -3 -21 -14 -21 -23 0
-12 -3 -13 -12 -4 -7 7 -21 12 -31 12 -15 0 -17 3 -8 14 6 7 8 22 4 31 -5 14
-3 17 9 13 8 -4 21 -2 29 3 9 5 15 4 18 -4 2 -7 10 -17 18 -24z m-247 -19
c116 -35 241 -118 275 -185 34 -65 8 -124 -71 -166 -49 -26 -54 -26 -71 -11
-32 29 -125 66 -197 79 -133 23 -312 -7 -399 -67 -35 -23 -41 -25 -69 -13 -81
34 -120 100 -94 162 34 82 186 181 326 212 79 18 221 13 300 -11z m-575 -75
c-9 -21 -54 -51 -65 -44 -13 8 -13 52 0 60 6 3 10 18 10 32 l0 27 30 -31 c17
-17 28 -37 25 -44z m860 50 c-4 -5 1 -19 10 -29 12 -13 15 -27 10 -49 l-7 -31
-30 21 c-42 31 -46 48 -14 76 29 25 41 30 31 12z m-983 -68 c15 8 18 6 18 -15
0 -13 6 -27 13 -29 6 -3 2 -6 -9 -6 -12 -1 -25 -9 -29 -18 -6 -17 -7 -17 -16
0 -6 9 -17 17 -26 17 -13 0 -14 3 -5 12 7 7 12 21 12 32 0 15 3 17 12 8 7 -7
17 -8 30 -1z m1054 -2 c4 -8 9 -8 17 0 16 16 30 13 23 -5 -4 -10 1 -22 11 -30
17 -12 16 -13 -4 -14 -14 0 -23 -6 -23 -15 0 -8 -4 -15 -9 -15 -5 0 -11 7 -15
15 -3 8 -13 15 -22 15 -13 0 -14 3 -4 15 7 8 10 22 6 30 -6 17 9 21 20 4z
m-1111 -118 c17 -10 29 -25 29 -34 -1 -9 2 -15 6 -12 15 9 20 -30 11 -78 -8
-44 -7 -47 23 -74 l31 -28 -30 35 c-16 19 -5 11 26 -18 31 -30 66 -71 78 -93
l22 -39 -33 6 c-22 5 -54 27 -98 70 -63 62 -67 64 -117 64 -28 0 -59 3 -68 6
-21 8 -55 76 -55 111 l0 27 45 -44 45 -44 37 37 37 37 -42 43 c-23 24 -39 47
-35 51 10 9 51 -1 88 -23z m1249 22 c3 -4 -12 -25 -34 -48 l-40 -41 41 -39 40
-40 38 44 c45 53 62 42 36 -25 -22 -58 -47 -74 -116 -74 -56 0 -56 0 -117 -64
-39 -41 -72 -65 -92 -69 -22 -5 -30 -3 -30 8 0 15 83 118 121 150 24 20 24 20
-1 -10 l-25 -30 25 22 c23 20 25 29 23 85 -4 72 5 89 63 118 42 21 57 24 68
13z m46 -61 c0 -23 -39 -47 -53 -33 -8 8 -4 18 13 36 24 26 40 25 40 -3z
m-1388 1 c22 -19 24 -43 4 -43 -17 0 -48 39 -40 52 8 12 15 10 36 -9z m821
-67 c32 -7 87 -27 123 -42 56 -25 64 -32 62 -54 -2 -18 -8 -24 -20 -22 -26 4
-23 -34 2 -41 41 -11 48 -92 14 -160 -8 -15 -30 -35 -49 -44 -29 -14 -35 -22
-35 -47 -1 -17 -7 -42 -15 -56 -8 -14 -14 -43 -14 -65 -1 -39 1 -41 52 -63
l52 -23 47 53 c36 41 49 50 59 41 9 -9 -3 -29 -53 -90 -97 -116 -128 -163
-128 -191 0 -30 26 -62 50 -62 19 0 80 63 188 192 82 99 92 107 92 78 0 -29
-136 -204 -220 -284 -71 -66 -210 -170 -218 -162 -2 3 3 24 12 48 25 69 55
188 47 188 -4 0 -25 -18 -46 -40 l-39 -40 -21 26 c-18 23 -22 24 -33 11 -10
-12 -8 -45 9 -165 12 -83 19 -161 15 -174 -3 -13 -23 -43 -44 -67 l-38 -43
-43 56 -42 57 22 165 c17 131 19 167 10 177 -10 9 -16 7 -28 -10 -21 -31 -31
-29 -75 14 -21 20 -39 35 -42 32 -2 -2 13 -56 34 -119 21 -63 36 -117 34 -119
-8 -9 -167 113 -238 184 -100 100 -206 239 -206 271 0 27 1 26 163 -163 49
-56 97 -105 107 -108 27 -9 59 11 66 41 8 30 -34 97 -131 208 -37 42 -63 80
-60 86 7 12 35 14 35 3 1 -5 18 -27 39 -50 l39 -43 51 21 c48 21 51 23 51 59
0 21 -7 54 -15 73 -8 20 -15 47 -15 59 0 15 -11 29 -30 40 -43 24 -70 74 -70
130 0 44 18 78 41 78 5 0 9 9 9 21 0 12 -4 18 -11 13 -12 -7 -29 12 -29 33 0
15 111 68 183 88 67 18 226 19 300 1z m-605 -24 c13 -19 12 -22 -3 -28 -19 -8
-35 10 -35 39 0 23 19 18 38 -11z m948 -18 c-6 -17 -36 -19 -36 -2 0 6 8 20
18 31 15 17 17 17 20 3 2 -10 1 -24 -2 -32z m-892 -33 c9 -15 -23 -36 -36 -23
-5 5 -7 15 -4 21 9 13 33 14 40 2z m842 -2 c10 -17 -13 -36 -27 -22 -12 12 -4
33 11 33 5 0 12 -5 16 -11z m-1192 -49 c47 -20 61 -43 54 -91 -5 -35 -23 -29
-26 8 -4 43 -62 87 -62 48 0 -8 4 -15 10 -15 5 0 16 -16 25 -36 8 -19 63 -90
121 -157 82 -93 114 -123 137 -127 36 -6 50 -37 33 -71 -22 -46 -96 -29 -96
22 0 11 -51 78 -114 150 -63 72 -112 137 -110 144 3 7 0 16 -6 20 -7 4 -14 -2
-17 -14 -3 -12 -9 -21 -14 -21 -10 0 -39 41 -39 56 0 21 39 104 49 104 5 0 30
-9 55 -20z m390 3 c9 -22 -10 -41 -25 -26 -13 13 -5 43 10 43 5 0 12 -8 15
-17z m755 -24 c-12 -22 -29 -16 -29 10 0 25 11 33 26 20 10 -8 11 -16 3 -30z
m445 -2 c20 -54 20 -81 0 -101 -17 -18 -34 -13 -34 10 0 8 -4 14 -10 14 -5 0
-10 -8 -10 -19 0 -10 -52 -78 -115 -151 -72 -83 -115 -140 -115 -154 0 -44
-47 -61 -82 -29 -34 31 -17 83 28 83 26 0 233 234 250 282 6 18 16 34 22 36
13 4 17 32 4 32 -20 0 -52 -43 -52 -70 0 -38 -16 -39 -25 -2 -10 47 9 78 57
95 62 22 64 21 82 -26z m-1309 -130 c38 6 72 -20 80 -62 l6 -30 -25 28 c-29
32 -56 35 -80 8 -16 -18 -16 -21 4 -60 23 -47 19 -50 -27 -18 -26 17 -33 29
-33 55 0 28 -11 46 -65 101 -36 37 -65 73 -65 79 0 6 8 18 17 28 17 16 21 13
88 -58 63 -68 73 -75 100 -71z m1145 100 c0 -6 -32 -43 -71 -83 -39 -41 -68
-78 -64 -84 13 -21 -4 -55 -35 -74 -40 -23 -45 -17 -23 23 l18 32 -29 25 -29
25 -26 -25 c-35 -34 -42 -33 -28 5 15 40 49 63 84 56 23 -4 36 5 96 69 66 71
70 74 88 58 11 -9 19 -22 19 -27z m-1507 -102 c19 -16 25 -29 23 -51 -2 -16
-4 -35 -5 -41 0 -7 -8 -13 -16 -13 -8 0 -15 -4 -15 -9 0 -5 -13 -9 -30 -9 -16
1 -30 5 -30 10 0 4 -7 8 -15 8 -15 0 -18 9 -18 55 0 46 3 55 18 55 8 0 15 4
15 9 0 17 48 8 73 -14z m1487 7 c0 -13 -48 -67 -54 -61 -3 3 7 19 22 36 30 35
32 37 32 25z m237 -20 c21 -13 31 -55 21 -84 -6 -16 -14 -26 -18 -23 -5 3 -11
1 -15 -4 -4 -7 -15 -7 -30 -1 -14 5 -25 7 -25 4 0 -2 -6 1 -13 7 -18 17 -20
67 -3 84 7 8 16 11 20 8 3 -4 6 -1 6 5 0 13 38 16 57 4z m-1631 -83 c10 -17
-13 -36 -27 -22 -12 12 -4 33 11 33 5 0 12 -5 16 -11z m333 -19 c12 -17 26
-28 30 -25 5 2 15 -3 22 -13 13 -16 13 -16 -6 -2 -19 14 -19 14 -6 -2 7 -10
17 -16 21 -13 5 3 11 1 15 -4 3 -6 12 -8 20 -5 16 7 55 -29 55 -51 0 -22 -15
-18 -33 8 -14 21 -16 21 -32 5 -25 -24 -12 -50 20 -42 30 7 34 -12 5 -21 -28
-9 -70 20 -70 47 0 13 -20 42 -46 69 -31 31 -45 53 -41 63 9 23 20 20 46 -14z
m842 -19 c-11 -14 -31 -37 -45 -50 -14 -14 -26 -34 -26 -46 0 -32 -34 -59 -65
-51 -14 4 -25 11 -25 17 0 7 10 9 25 5 33 -8 47 21 19 41 -17 12 -21 12 -33
-6 -16 -25 -31 -27 -31 -6 0 23 39 57 58 51 12 -4 33 10 67 44 37 38 52 47 62
39 10 -9 9 -16 -6 -38z m339 23 c0 -9 -7 -14 -17 -12 -25 5 -28 28 -4 28 12 0
21 -6 21 -16z m-1522 -47 c6 -5 17 -5 22 -2 6 3 13 -1 16 -9 3 -9 9 -14 14
-11 4 2 20 -9 35 -25 16 -17 25 -30 19 -30 -5 0 -4 -4 2 -8 20 -13 33 -89 22
-132 -6 -22 -14 -40 -19 -40 -5 0 -9 -6 -9 -13 0 -11 -41 -43 -49 -38 -2 2 -7
-3 -12 -11 -5 -7 -13 -14 -19 -14 -5 -1 -11 -3 -12 -4 -8 -8 -99 -7 -104 1 -3
5 -10 7 -15 4 -5 -4 -12 1 -15 9 -3 9 -12 16 -18 16 -22 0 -63 55 -71 95 -1 6
-3 12 -4 15 -8 16 -7 57 1 68 6 6 8 12 4 12 -11 0 21 55 50 83 15 15 33 26 40
23 7 -3 14 1 17 8 5 13 85 16 105 3z m1500 -33 c21 -14 29 -14 102 2 86 18
110 15 110 -14 0 -23 -25 -46 -40 -37 -22 14 -125 -16 -156 -47 -40 -38 -87
-36 -117 4 -18 24 -18 30 -7 58 21 50 65 64 108 34z m120 -131 c-10 -12 -14
-12 -27 2 -14 14 -14 17 -1 25 21 13 44 -8 28 -27z m-1221 -77 c45 -56 85
-109 88 -118 7 -18 -21 -51 -39 -45 -6 2 -53 52 -104 110 l-93 108 28 24 c16
13 30 24 33 24 3 0 42 -46 87 -103z m843 55 c-1 -10 -171 -205 -187 -214 -18
-11 -43 9 -43 33 0 10 39 66 86 124 l85 106 30 -22 c16 -12 29 -24 29 -27z
m152 12 c21 -19 24 -43 5 -43 -19 0 -37 21 -37 42 0 22 8 23 32 1z m164 -32
c5 1 21 -3 37 -9 28 -12 35 -28 16 -34 -8 -3 -6 -10 5 -20 21 -21 21 -48 0
-48 -11 0 -15 -6 -11 -20 6 -23 -14 -43 -37 -34 -10 4 -18 0 -22 -10 -8 -20
-30 -21 -38 0 -3 8 -14 14 -23 12 -27 -4 -42 10 -36 32 4 14 0 20 -11 20 -21
0 -21 36 0 44 9 4 13 13 10 23 -7 22 8 48 22 39 5 -3 20 4 33 15 21 18 25 19
35 4 7 -9 16 -15 20 -14z m-196 -20 c0 -5 -7 -14 -16 -22 -14 -12 -14 -14 2
-26 16 -12 21 -10 36 9 17 23 18 23 18 2 0 -26 -34 -58 -54 -51 -18 7 -136
-124 -136 -151 0 -49 -62 -70 -82 -27 -9 21 -8 28 7 45 10 11 23 20 30 20 15
0 124 127 137 159 5 14 14 31 20 38 12 15 38 18 38 4z m-1140 -71 c0 -24 90
-125 123 -138 23 -9 28 -16 25 -38 -6 -56 -67 -57 -78 -1 -5 26 -94 138 -108
136 -20 -3 -32 3 -42 21 -16 31 -1 44 20 18 17 -21 19 -21 25 -5 4 9 2 23 -4
31 -6 7 -8 16 -4 19 10 10 43 -23 43 -43z m-98 -71 c2 -6 16 -11 32 -11 17 0
29 -7 32 -17 3 -9 13 -31 22 -49 11 -23 12 -36 5 -40 -8 -6 -25 -43 -28 -62
-2 -15 -18 -30 -26 -24 -5 3 -26 0 -46 -7 -27 -9 -38 -9 -41 -1 -2 6 -19 14
-38 18 -31 6 -39 14 -35 38 1 4 -6 19 -14 33 -15 23 -15 26 -1 42 9 10 16 25
16 34 0 18 16 30 45 34 11 2 24 8 29 13 14 14 43 13 48 -1z m1276 -12 c19 11
46 3 41 -13 -1 -5 6 -11 17 -13 25 -4 36 -23 21 -33 -9 -6 -7 -12 6 -22 9 -7
17 -19 17 -26 0 -7 -8 -19 -17 -27 -13 -10 -14 -16 -6 -19 20 -9 2 -34 -24
-34 -18 0 -24 -4 -20 -14 8 -20 -19 -28 -34 -10 -12 14 -14 14 -24 1 -12 -17
-29 -11 -37 13 -2 8 -13 15 -24 15 -15 0 -18 6 -16 28 2 19 -2 27 -13 27 -8 0
-15 9 -15 20 0 11 7 20 15 20 11 0 15 8 13 28 -2 21 1 27 16 27 11 0 22 7 24
15 7 22 25 31 34 17 6 -9 12 -9 26 0z m-1432 -28 c10 -17 -13 -36 -27 -22 -12
12 -4 33 11 33 5 0 12 -5 16 -11z m1584 -23 c0 -20 -19 -31 -32 -18 -6 6 -7
15 -4 21 10 16 36 13 36 -3z m-890 -50 c0 -3 -5 -17 -11 -33 -10 -26 -12 -27
-19 -8 -14 33 -11 45 10 45 11 0 20 -2 20 -4z m206 -18 c-3 -13 -6 -27 -6 -33
0 -5 -5 -3 -10 5 -15 23 -12 50 6 50 12 0 15 -6 10 -22z m-576 -28 c0 -5 -7
-10 -15 -10 -16 0 -21 -25 -7 -34 14 -8 152 6 152 15 0 5 -9 9 -20 9 -11 0
-20 5 -20 10 0 16 46 12 60 -5 7 -8 21 -15 31 -15 11 0 19 -7 19 -15 0 -8 -4
-15 -10 -15 -5 0 -10 5 -10 11 0 5 -4 7 -10 4 -5 -3 -10 -14 -10 -25 0 -15 6
-17 35 -15 36 4 99 -21 90 -35 -3 -4 5 -10 16 -13 12 -3 18 -10 15 -15 -3 -6
1 -13 10 -16 9 -4 14 -13 10 -21 -3 -8 -2 -15 2 -15 5 0 8 -16 9 -35 1 -19 -3
-35 -7 -35 -4 0 -6 -9 -3 -20 3 -11 1 -20 -5 -20 -5 0 -12 -9 -15 -21 -3 -12
-10 -18 -15 -15 -5 3 -12 -4 -15 -16 -4 -12 -9 -19 -13 -16 -3 4 -13 1 -20 -7
-17 -16 -136 -13 -142 4 -2 6 -9 11 -16 11 -13 0 -46 35 -46 49 0 5 -5 11 -10
13 -14 4 -22 95 -10 103 6 4 8 11 5 16 -3 5 5 21 19 36 15 15 26 31 26 35 0 5
7 8 15 8 8 0 15 4 15 9 0 5 9 11 20 14 11 3 20 12 20 21 0 15 -3 15 -27 2 -16
-7 -42 -17 -60 -20 -29 -7 -31 -10 -23 -31 6 -17 5 -27 -6 -35 -7 -7 -14 -20
-14 -30 0 -20 -26 -34 -35 -20 -10 16 -19 11 -37 -20 -22 -39 -57 -53 -98 -39
-90 32 -58 165 39 157 28 -2 38 2 55 26 l21 28 -22 15 c-28 18 -29 30 -5 36
32 9 62 7 62 -3z m951 -43 c117 -78 68 -264 -72 -271 -40 -2 -44 -5 -53 -34
-5 -17 -17 -34 -28 -38 -22 -7 -48 11 -48 33 0 17 -68 103 -81 103 -17 0 -9
-23 21 -57 54 -61 33 -147 -44 -173 -65 -21 -136 32 -136 102 0 50 52 108 96
108 27 0 30 5 50 70 l22 70 -32 0 c-26 -1 -28 -2 -13 -11 26 -15 10 -30 -18
-17 -46 21 -26 44 48 53 59 8 70 2 40 -21 -10 -7 -15 -16 -11 -19 10 -10 58 3
58 16 0 24 45 72 84 90 54 24 76 24 117 -4z m175 -68 c3 -6 2 -15 -2 -19 -12
-12 -38 5 -30 19 9 14 23 14 32 0z m-730 -285 c1 -13 -2 -24 -7 -24 -5 0 -8
-5 -6 -12 2 -13 -29 -15 -55 -4 -9 4 -16 17 -15 29 4 59 80 69 83 11z m89 -12
c-3 -8 -5 -17 -5 -22 0 -4 -11 -7 -24 -7 -30 0 -43 35 -19 53 21 14 56 -3 48
-24z"/>
<path d="M1481 2234 c-12 -32 -15 -34 -59 -34 l-47 -1 34 -31 c33 -29 34 -33
24 -69 -12 -45 -9 -46 33 -20 31 19 32 19 64 0 18 -11 34 -18 37 -15 2 2 0 20
-5 40 -10 34 -8 37 26 65 l37 30 -46 1 c-42 0 -48 3 -59 30 -18 43 -25 44 -39
4z m53 -54 c18 0 22 -15 6 -25 -5 -3 -10 -14 -10 -23 0 -12 -9 -17 -34 -18
-27 0 -32 3 -29 17 3 9 0 20 -6 23 -16 10 -13 26 4 26 9 0 18 7 22 16 6 16 7
16 18 0 7 -9 20 -16 29 -16z"/>
<path d="M1440 1900 c0 -41 0 -41 -32 -36 -18 3 -62 7 -98 10 l-65 5 45 -16
c61 -21 274 -29 360 -14 79 14 118 34 50 27 -25 -3 -67 -7 -94 -8 l-50 -3 0
35 -1 35 -57 3 -58 3 0 -41z"/>
<path d="M1427 1807 c47 -6 95 -6 140 0 64 10 60 10 -72 10 -134 0 -137 0 -68
-10z"/>
<path d="M1250 1762 c0 -19 12 -40 40 -67 40 -39 40 -39 39 -115 -1 -63 -2
-69 -9 -40 -5 19 -7 44 -4 56 3 12 -2 26 -12 35 -16 13 -17 10 -10 -45 9 -77
34 -116 97 -150 44 -25 59 -28 117 -24 53 3 76 10 110 32 l42 29 0 90 0 90 39
33 c28 25 40 43 43 69 2 19 3 35 2 35 -1 0 -26 -11 -55 -24 -30 -13 -74 -27
-97 -31 l-44 -7 7 -37 c4 -20 12 -42 17 -49 20 -23 -24 -43 -67 -30 -11 3 -32
9 -47 12 -16 4 -28 13 -28 21 0 19 21 30 30 16 7 -13 90 -12 90 0 0 4 -12 21
-26 38 -20 24 -34 31 -63 31 -46 0 -149 26 -178 46 -30 19 -33 18 -33 -14z
m420 -49 c0 -1 -9 -18 -21 -37 -16 -27 -20 -49 -18 -105 2 -68 1 -72 -32 -105
l-33 -34 -19 30 c-16 27 -22 30 -57 26 -42 -4 -48 0 -29 19 12 12 65 7 84 -8
6 -4 21 1 35 11 l24 18 -37 7 c-21 4 -67 5 -102 3 -62 -4 -65 -3 -48 13 26 25
136 29 161 6 10 -9 22 -17 25 -17 13 0 7 27 -8 40 -11 9 -12 16 -4 26 6 8 8
29 4 52 -5 33 -3 40 15 48 20 9 60 14 60 7z m-287 -13 c7 0 18 -4 25 -9 12 -7
12 -12 1 -30 -11 -16 -11 -25 -2 -40 10 -15 9 -22 -2 -31 -29 -24 -27 -49 5
-90 34 -43 34 -46 -3 -29 -39 18 -51 50 -44 122 4 48 2 69 -8 83 -19 25 -19
38 1 30 9 -3 21 -6 27 -6z"/>
<path d="M1183 1754 c-8 -22 13 -88 37 -109 19 -18 20 -17 20 1 0 10 -7 28
-15 38 -8 11 -15 35 -15 53 0 34 -16 45 -27 17z"/>
<path d="M1785 1733 c-4 -21 -11 -43 -17 -50 -5 -7 -8 -22 -6 -35 3 -21 5 -20
26 13 22 36 31 109 13 109 -5 0 -12 -17 -16 -37z"/>
<path d="M1320 1394 c0 -32 5 -44 28 -61 34 -25 98 -58 132 -68 22 -6 20 -2
-15 30 -22 21 -64 60 -92 88 l-53 51 0 -40z"/>
<path d="M1288 1280 c-3 -49 -1 -53 42 -95 25 -25 50 -45 55 -45 5 0 28 19 52
41 l42 42 -57 27 c-31 15 -71 39 -88 53 -18 15 -34 27 -37 27 -3 0 -7 -23 -9
-50z"/>
<path d="M1655 1298 c-22 -17 -61 -40 -88 -52 l-47 -21 45 -45 45 -44 50 49
c49 49 49 51 42 97 l-7 47 -40 -31z"/>
<path d="M667 1783 c-10 -9 -8 -51 2 -57 8 -6 21 25 21 52 0 13 -13 16 -23 5z"/>
<path d="M984 1424 c3 -8 2 -12 -4 -9 -6 3 -10 1 -10 -5 0 -6 8 -10 17 -8 24
4 30 38 8 38 -11 0 -15 -5 -11 -16z"/>
<path d="M2300 1792 c0 -5 5 -24 12 -42 10 -30 12 -32 19 -14 12 30 10 38 -11
52 -11 7 -20 8 -20 4z"/>
<path d="M1982 1423 c4 -20 38 -31 38 -13 0 6 -4 8 -10 5 -6 -3 -7 1 -4 9 4
11 0 16 -11 16 -10 0 -15 -6 -13 -17z"/>
<path d="M2095 1760 c-27 -28 -45 -50 -40 -50 4 0 -2 -11 -15 -25 -13 -14 -21
-27 -18 -30 3 -3 35 28 72 69 75 84 76 112 1 36z"/>
<path d="M594 1656 c-11 -29 1 -51 26 -51 19 0 26 6 28 24 5 35 -42 58 -54 27z"/>
<path d="M2332 1618 c2 -15 10 -23 23 -23 30 0 27 39 -3 43 -20 3 -23 0 -20
-20z"/>
<path d="M658 1483 c-23 -6 -23 -5 5 -47 28 -40 42 -35 52 17 7 34 6 37 -16
36 -13 -1 -32 -3 -41 -6z"/>
<path d="M727 1448 c-7 -47 7 -55 33 -18 19 26 20 34 9 41 -25 16 -37 9 -42
-23z"/>
<path d="M606 1441 c-21 -23 -22 -22 17 -39 53 -23 60 -13 24 31 l-22 29 -19
-21z"/>
<path d="M770 1418 l-23 -31 24 6 c13 4 30 7 37 7 16 0 16 25 -1 39 -10 8 -19
3 -37 -21z"/>
<path d="M577 1378 c-9 -32 3 -39 46 -27 42 11 48 24 15 32 -13 2 -30 8 -39
11 -12 5 -18 1 -22 -16z"/>
<path d="M778 1378 c-33 -11 -36 -24 -8 -32 11 -3 29 -9 40 -12 17 -4 20 -1
20 25 0 33 -7 36 -52 19z"/>
<path d="M623 1336 c-34 -11 -39 -21 -23 -46 8 -13 15 -10 41 16 35 35 29 45
-18 30z"/>
<path d="M730 1329 c0 -33 13 -89 21 -89 14 0 69 51 69 65 0 7 -12 15 -27 18
-16 3 -36 9 -45 12 -12 5 -18 2 -18 -6z"/>
<path d="M645 1290 c-16 -17 -26 -30 -23 -30 4 0 13 -3 21 -6 10 -3 18 5 26
27 6 18 10 34 8 36 -2 1 -16 -11 -32 -27z"/>
<path d="M686 1296 c-3 -13 -8 -31 -12 -39 -6 -16 26 -29 44 -18 13 8 1 73
-15 78 -6 2 -13 -7 -17 -21z"/>
<path d="M2182 1458 c-18 -18 -15 -36 7 -48 15 -7 23 -6 35 6 9 8 16 19 16 23
0 11 -23 31 -35 31 -6 0 -16 -5 -23 -12z"/>
<path d="M1055 1339 c5 -8 39 -50 75 -94 37 -44 69 -87 72 -95 3 -10 6 -11 11
-3 4 7 -24 50 -67 101 -70 84 -112 126 -91 91z"/>
<path d="M1862 1269 c-40 -49 -76 -97 -79 -107 -8 -22 0 -14 64 65 28 34 54
59 59 55 4 -4 4 -2 1 5 -4 6 5 20 20 31 18 14 25 24 18 30 -7 6 -36 -21 -83
-79z"/>
<path d="M2260 1292 c-44 -13 -53 -73 -15 -98 21 -13 31 -15 50 -6 61 28 29
123 -35 104z m52 -38 c11 -23 10 -29 -11 -45 -21 -17 -26 -18 -45 -6 -41 27
-27 77 20 77 17 0 28 -9 36 -26z"/>
<path d="M2254 1255 c-9 -23 4 -47 23 -43 22 4 30 38 11 49 -19 13 -28 11 -34
-6z"/>
<path d="M1896 1061 c-3 -5 0 -14 8 -20 10 -8 16 -8 25 2 6 8 8 17 4 20 -9 10
-31 9 -37 -2z"/>
<path d="M1062 1053 c2 -10 10 -18 18 -18 8 0 16 8 18 18 2 12 -3 17 -18 17
-15 0 -20 -5 -18 -17z"/>
<path d="M796 1109 c-32 -25 -34 -49 -3 -49 29 0 47 18 47 47 0 28 -10 29 -44
2z"/>
<path d="M850 1112 c0 -11 7 -25 15 -32 8 -7 15 -19 15 -27 0 -7 -7 -16 -15
-19 -13 -5 -23 -54 -10 -54 20 0 56 28 65 50 9 23 8 34 -4 59 -9 17 -21 31
-25 31 -5 0 -16 3 -25 6 -11 4 -16 0 -16 -14z"/>
<path d="M770 1040 c0 -17 49 -62 60 -55 14 8 13 38 -2 53 -15 15 -58 16 -58
2z"/>
<path d="M2096 1084 c-36 -35 -7 -104 42 -104 27 0 62 33 62 58 0 52 -68 82
-104 46z m79 -18 c22 -33 5 -66 -33 -66 -49 0 -69 42 -36 74 23 23 51 20 69
-8z"/>
<path d="M2115 1064 c-18 -19 -16 -33 7 -48 12 -7 21 -6 32 3 22 18 20 38 -3
51 -15 7 -24 6 -36 -6z"/>
<path d="M1033 890 c6 -22 16 -39 22 -36 5 2 8 10 6 17 -1 8 -4 24 -5 36 0 14
-8 23 -17 23 -14 0 -15 -5 -6 -40z"/>
<path d="M990 898 c-10 -22 -10 -30 2 -47 23 -33 39 -6 23 39 l-12 35 -13 -27z"/>
<path d="M887 852 c-48 -52 19 -114 69 -64 17 16 16 17 -19 20 -48 4 -48 22 0
22 35 0 36 0 18 20 -23 25 -47 26 -68 2z"/>
<path d="M1200 868 c0 -2 6 -20 14 -42 l13 -38 12 32 c15 46 14 50 -14 50 -14
0 -25 -1 -25 -2z"/>
<path d="M1160 845 c-10 -12 -8 -18 11 -35 30 -24 43 -25 34 -2 -4 9 -10 25
-12 35 -6 21 -17 22 -33 2z"/>
<path d="M1254 825 c-13 -41 -11 -42 27 -14 28 20 29 22 12 35 -25 19 -27 18
-39 -21z"/>
<path d="M1126 813 c-3 -3 -6 -15 -6 -25 0 -15 8 -18 43 -18 40 1 41 1 22 16
-32 25 -52 34 -59 27z"/>
<path d="M1285 795 l-30 -24 38 -1 c37 0 46 11 29 37 -6 9 -16 6 -37 -12z"/>
<path d="M1120 735 c0 -30 3 -30 41 -8 38 23 37 33 -6 33 -31 0 -35 -3 -35
-25z"/>
<path d="M1260 752 c0 -8 14 -16 63 -40 4 -2 7 8 7 22 0 23 -4 26 -35 26 -19
0 -35 -4 -35 -8z"/>
<path d="M1172 718 c-31 -20 -32 -21 -16 -39 9 -11 20 -19 24 -19 6 0 32 72
27 76 -1 2 -17 -6 -35 -18z"/>
<path d="M1245 723 c4 -10 10 -28 12 -40 6 -28 15 -29 36 -5 16 17 15 20 -13
40 -35 27 -45 28 -35 5z"/>
<path d="M1217 708 c-4 -14 -10 -33 -13 -42 -5 -12 0 -16 20 -16 29 0 31 11
12 55 l-13 30 -6 -27z"/>
<path d="M1866 932 c-2 -4 13 -6 34 -4 21 2 48 -1 60 -8 29 -15 52 -73 44
-108 -8 -32 -51 -82 -73 -83 -10 0 -12 -2 -4 -6 21 -8 71 35 83 72 24 74 -25
145 -100 145 -21 0 -41 -3 -44 -8z"/>
<path d="M1880 913 c-21 -8 -50 -34 -50 -45 0 -6 17 -7 40 -3 65 11 94 -31 50
-75 -11 -11 -20 -27 -20 -35 0 -26 37 -17 64 16 31 36 34 87 9 118 -19 22 -67
34 -93 24z"/>
<path d="M1843 833 c-13 -2 -23 -11 -23 -20 0 -11 6 -14 23 -9 12 3 28 6 35 6
6 0 12 7 12 15 0 15 -6 16 -47 8z"/>
<path d="M1727 803 c-14 -14 -6 -19 23 -15 17 2 30 8 30 13 0 10 -43 12 -53 2z"/>
<path d="M1840 781 c-8 -6 -19 -7 -25 -4 -5 4 1 -6 14 -20 14 -15 29 -27 34
-27 5 0 1 8 -10 18 -10 9 -14 14 -9 10 18 -14 36 -8 36 12 0 21 -16 26 -40 11z"/>
<path d="M1758 772 l-28 -3 32 -40 c17 -21 40 -39 50 -39 24 0 23 12 -4 52
-18 26 -29 32 -50 30z"/>
<path d="M1599 688 c0 -2 -3 -22 -5 -45 -7 -57 22 -88 72 -80 25 4 33 3 28 -6
-4 -7 2 -4 13 6 25 22 27 102 2 102 -8 1 -13 7 -11 15 3 12 1 12 -9 3 -7 -7
-12 -27 -13 -45 -1 -26 -5 -33 -21 -33 -25 0 -33 35 -11 47 21 12 22 42 1 34
-8 -3 -22 -9 -32 -13 -11 -4 -14 -3 -9 5 4 7 5 12 2 12 -3 0 -6 -1 -7 -2z"/>
<path d="M1380 601 c0 -12 6 -21 16 -21 9 0 14 7 12 17 -5 25 -28 28 -28 4z"/>
<path d="M2238 860 c-1 -5 -34 -41 -71 -79 -48 -48 -64 -71 -56 -77 9 -5 38
19 86 72 40 43 73 82 73 87 0 11 -28 9 -32 -3z"/>
<path d="M1206 522 c-9 -15 153 -62 217 -62 40 0 33 18 -10 25 -36 6 -133 28
-179 41 -12 3 -25 1 -28 -4z"/>
</g>
</svg>
